<svg width="40" height="40" viewBox="0 0 40 40" fill="none" xmlns="http://www.w3.org/2000/svg">
<path d="M20 2.5C21.6576 2.5 23.2473 3.15848 24.4194 4.33058C25.5915 5.50269 26.25 7.0924 26.25 8.75V10H13.75V8.75C13.75 7.0924 14.4085 5.50269 15.5806 4.33058C16.7527 3.15848 18.3424 2.5 20 2.5ZM28.75 10V8.75C28.75 6.42936 27.8281 4.20376 26.1872 2.56282C24.5462 0.921872 22.3206 0 20 0C17.6794 0 15.4538 0.921872 13.8128 2.56282C12.1719 4.20376 11.25 6.42936 11.25 8.75V10H2.5V35C2.5 36.3261 3.02678 37.5979 3.96447 38.5355C4.90215 39.4732 6.17392 40 7.5 40H32.5C33.8261 40 35.0979 39.4732 36.0355 38.5355C36.9732 37.5979 37.5 36.3261 37.5 35V10H28.75ZM5 12.5H35V35C35 35.663 34.7366 36.2989 34.2678 36.7678C33.7989 37.2366 33.163 37.5 32.5 37.5H7.5C6.83696 37.5 6.20107 37.2366 5.73223 36.7678C5.26339 36.2989 5 35.663 5 35V12.5Z" fill="#F5F8F5"/>
</svg>
