<svg width="28" height="28" viewBox="0 0 28 28" fill="none" xmlns="http://www.w3.org/2000/svg">
<path d="M14 1.75C15.1603 1.75 16.2731 2.21094 17.0936 3.03141C17.9141 3.85188 18.375 4.96468 18.375 6.125V7H9.625V6.125C9.625 4.96468 10.0859 3.85188 10.9064 3.03141C11.7269 2.21094 12.8397 1.75 14 1.75V1.75ZM20.125 7V6.125C20.125 4.50055 19.4797 2.94263 18.331 1.79397C17.1824 0.645311 15.6245 0 14 0C12.3755 0 10.8176 0.645311 9.66897 1.79397C8.52031 2.94263 7.875 4.50055 7.875 6.125V7H1.75V24.5C1.75 25.4283 2.11875 26.3185 2.77513 26.9749C3.4315 27.6313 4.32174 28 5.25 28H22.75C23.6783 28 24.5685 27.6313 25.2249 26.9749C25.8813 26.3185 26.25 25.4283 26.25 24.5V7H20.125ZM3.5 8.75H24.5V24.5C24.5 24.9641 24.3156 25.4092 23.9874 25.7374C23.6592 26.0656 23.2141 26.25 22.75 26.25H5.25C4.78587 26.25 4.34075 26.0656 4.01256 25.7374C3.68437 25.4092 3.5 24.9641 3.5 24.5V8.75Z" fill="#F5F8F5"/>
</svg>
