<svg width="33" height="32" viewBox="0 0 33 32" fill="none" xmlns="http://www.w3.org/2000/svg">
<path fill-rule="evenodd" clip-rule="evenodd" d="M10.4535 1.42125C12.0175 1.34925 12.5162 1.33325 16.5002 1.33325C20.4842 1.33325 20.9828 1.35059 22.5455 1.42125C24.1082 1.49192 25.1748 1.74125 26.1082 2.10259C27.0855 2.47192 27.9722 3.04925 28.7055 3.79592C29.4522 4.52792 30.0282 5.41325 30.3962 6.39192C30.7588 7.32525 31.0068 8.39192 31.0788 9.95192C31.1508 11.5186 31.1668 12.0173 31.1668 15.9999C31.1668 19.9839 31.1495 20.4826 31.0788 22.0466C31.0082 23.6066 30.7588 24.6733 30.3962 25.6066C30.0282 26.5854 29.4512 27.4722 28.7055 28.2053C27.9722 28.9519 27.0855 29.5279 26.1082 29.8959C25.1748 30.2586 24.1082 30.5066 22.5482 30.5786C20.9828 30.6506 20.4842 30.6666 16.5002 30.6666C12.5162 30.6666 12.0175 30.6493 10.4535 30.5786C8.8935 30.5079 7.82683 30.2586 6.8935 29.8959C5.91472 29.5279 5.02792 28.9509 4.29483 28.2053C3.54867 27.4728 2.97125 26.5864 2.60283 25.6079C2.2415 24.6746 1.9935 23.6079 1.9215 22.0479C1.8495 20.4813 1.8335 19.9826 1.8335 15.9999C1.8335 12.0159 1.85083 11.5173 1.9215 9.95459C1.99216 8.39192 2.2415 7.32525 2.60283 6.39192C2.97179 5.41336 3.54965 4.527 4.29616 3.79459C5.02822 3.04859 5.91413 2.47118 6.89216 2.10259C7.8255 1.74125 8.89216 1.49325 10.4522 1.42125H10.4535ZM22.4268 4.06125C20.8802 3.99059 20.4162 3.97592 16.5002 3.97592C12.5842 3.97592 12.1202 3.99059 10.5735 4.06125C9.14283 4.12659 8.36683 4.36525 7.8495 4.56659C7.1655 4.83325 6.67616 5.14925 6.16283 5.66259C5.67622 6.13599 5.30174 6.7123 5.06683 7.34925C4.8655 7.86659 4.62683 8.64259 4.5615 10.0733C4.49083 11.6199 4.47616 12.0839 4.47616 15.9999C4.47616 19.9159 4.49083 20.3799 4.5615 21.9266C4.62683 23.3573 4.8655 24.1333 5.06683 24.6506C5.3015 25.2866 5.67616 25.8639 6.16283 26.3373C6.63616 26.8239 7.2135 27.1986 7.8495 27.4333C8.36683 27.6346 9.14283 27.8733 10.5735 27.9386C12.1202 28.0093 12.5828 28.0239 16.5002 28.0239C20.4175 28.0239 20.8802 28.0093 22.4268 27.9386C23.8575 27.8733 24.6335 27.6346 25.1508 27.4333C25.8348 27.1666 26.3242 26.8506 26.8375 26.3373C27.3242 25.8639 27.6988 25.2866 27.9335 24.6506C28.1348 24.1333 28.3735 23.3573 28.4388 21.9266C28.5095 20.3799 28.5242 19.9159 28.5242 15.9999C28.5242 12.0839 28.5095 11.6199 28.4388 10.0733C28.3735 8.64259 28.1348 7.86659 27.9335 7.34925C27.6668 6.66525 27.3508 6.17592 26.8375 5.66259C26.3641 5.17601 25.7878 4.80153 25.1508 4.56659C24.6335 4.36525 23.8575 4.12659 22.4268 4.06125ZM14.6268 20.5213C15.673 20.9568 16.838 21.0155 17.9227 20.6875C19.0075 20.3596 19.9447 19.6651 20.5743 18.7229C21.2039 17.7807 21.4869 16.6491 21.3749 15.5214C21.2629 14.3937 20.7628 13.3399 19.9602 12.5399C19.4485 12.0286 18.8298 11.637 18.1486 11.3934C17.4674 11.1499 16.7407 11.0604 16.0208 11.1314C15.3009 11.2024 14.6057 11.4322 13.9852 11.8041C13.3648 12.176 12.8345 12.6809 12.4326 13.2824C12.0306 13.8839 11.7671 14.567 11.6609 15.2825C11.5546 15.9981 11.6084 16.7283 11.8182 17.4206C12.0281 18.1129 12.3888 18.7501 12.8745 19.2862C13.3601 19.8224 13.9586 20.2442 14.6268 20.5213ZM11.1695 10.6693C11.8695 9.96922 12.7006 9.41392 13.6152 9.03507C14.5299 8.65621 15.5102 8.46122 16.5002 8.46122C17.4902 8.46122 18.4705 8.65621 19.3851 9.03507C20.2997 9.41392 21.1308 9.96922 21.8308 10.6693C22.5309 11.3693 23.0862 12.2003 23.465 13.115C23.8439 14.0296 24.0389 15.0099 24.0389 15.9999C24.0389 16.9899 23.8439 17.9702 23.465 18.8849C23.0862 19.7995 22.5309 20.6306 21.8308 21.3306C20.417 22.7444 18.4996 23.5386 16.5002 23.5386C14.5008 23.5386 12.5833 22.7444 11.1695 21.3306C9.75572 19.9168 8.96146 17.9993 8.96146 15.9999C8.96146 14.0005 9.75572 12.083 11.1695 10.6693ZM25.7108 9.58392C25.8843 9.42028 26.0232 9.22349 26.1192 9.00522C26.2153 8.78694 26.2666 8.55161 26.2701 8.31316C26.2735 8.07471 26.2291 7.83798 26.1395 7.617C26.0498 7.39602 25.9167 7.19527 25.7481 7.02664C25.5795 6.85801 25.3787 6.72493 25.1578 6.63528C24.9368 6.54562 24.7 6.50122 24.4616 6.5047C24.2231 6.50817 23.9878 6.55946 23.7695 6.65551C23.5513 6.75157 23.3545 6.89045 23.1908 7.06392C22.8726 7.40129 22.6983 7.84941 22.7051 8.31316C22.7119 8.7769 22.8991 9.21976 23.227 9.54771C23.555 9.87566 23.9978 10.0629 24.4616 10.0697C24.9253 10.0764 25.3735 9.90217 25.7108 9.58392Z" fill="#F0F2F0"/>
</svg>
