<svg width="33" height="32" viewBox="0 0 33 32" fill="none" xmlns="http://www.w3.org/2000/svg">
<g clip-path="url(#clip0_254_49)">
<path d="M0.5 16C0.5 22.8307 4.78133 28.6627 10.8067 30.9573C10.66 29.708 10.504 27.648 10.84 26.2027C11.1293 24.96 12.708 18.2853 12.708 18.2853C12.708 18.2853 12.232 17.332 12.232 15.92C12.232 13.7067 13.5147 12.0533 15.1133 12.0533C16.4733 12.0533 17.1293 13.0733 17.1293 14.296C17.1293 15.6627 16.2587 17.7053 15.8093 19.6C15.4347 21.1853 16.6053 22.4787 18.168 22.4787C20.9987 22.4787 23.176 19.4933 23.176 15.184C23.176 11.3693 20.4347 8.704 16.5213 8.704C11.9907 8.704 9.33067 12.1027 9.33067 15.616C9.33067 16.9853 9.85733 18.452 10.516 19.2507C10.5722 19.311 10.6118 19.3847 10.6312 19.4648C10.6506 19.5449 10.649 19.6287 10.6267 19.708C10.5053 20.212 10.236 21.2933 10.184 21.5147C10.1133 21.8053 9.95333 21.868 9.65067 21.7267C7.66133 20.8013 6.41867 17.8933 6.41867 15.5573C6.41867 10.532 10.068 5.91867 16.9413 5.91867C22.4667 5.91867 26.7613 9.856 26.7613 15.1173C26.7613 20.6067 23.3013 25.0253 18.496 25.0253C16.8813 25.0253 15.3653 24.1853 14.8453 23.1947C14.8453 23.1947 14.0467 26.2373 13.8533 26.9813C13.4773 28.4267 12.4347 30.256 11.788 31.2947C13.2787 31.7533 14.86 32 16.5 32C25.336 32 32.5 24.836 32.5 16C32.5 7.164 25.336 0 16.5 0C7.664 0 0.5 7.164 0.5 16Z" fill="#F0F2F0"/>
</g>
<defs>
<clipPath id="clip0_254_49">
<rect width="32" height="32" fill="white" transform="translate(0.5)"/>
</clipPath>
</defs>
</svg>
